<?xml version="1.0" encoding="UTF-8" standalone="no"?>

<svg
   xmlns:dc="http://purl.org/dc/elements/1.1/"
   xmlns:cc="http://creativecommons.org/ns#"
   xmlns:rdf="http://www.w3.org/1999/02/22-rdf-syntax-ns#"
   xmlns:svg="http://www.w3.org/2000/svg"
   xmlns="http://www.w3.org/2000/svg"
   width="74.835518mm"
   height="78.916275mm"
   viewBox="0 0 74.83552 78.916278"
   version="1.1">

  <title>Apple</title>

  <metadata>
    <rdf:RDF>
      <cc:Work
         rdf:about="">
        <dc:format>image/svg+xml</dc:format>
        <dc:type
           rdf:resource="http://purl.org/dc/dcmitype/StillImage" />
        <dc:title>Granny Apple</dc:title>
        <cc:license
           rdf:resource="http://creativecommons.org/publicdomain/zero/1.0/" />
        <dc:rights>
          <cc:Agent>
            <dc:title>CC0</dc:title>
          </cc:Agent>
        </dc:rights>
        <dc:date>26/9/23</dc:date>
        <dc:subject>
          <rdf:Bag>
            <rdf:li>apple</rdf:li>
            <rdf:li>fruit</rdf:li>
            <rdf:li>food</rdf:li>
          </rdf:Bag>
        </dc:subject>
        <dc:description>An apple with stem.</dc:description>
      </cc:Work>
      <cc:License
         rdf:about="http://creativecommons.org/publicdomain/zero/1.0/">
        <cc:permits
           rdf:resource="http://creativecommons.org/ns#Reproduction" />
        <cc:permits
           rdf:resource="http://creativecommons.org/ns#Distribution" />
        <cc:permits
           rdf:resource="http://creativecommons.org/ns#DerivativeWorks" />
      </cc:License>
    </rdf:RDF>
  </metadata>

   <g
     id="apple"
     transform="translate(-87.130082,-63.067573)">

    <path
       style="opacity:1;
              fill:#6cabef;
              fill-opacity:1;
              fill-rule:nonzero;
              stroke:none"

       d="m 124.06095,63.067573 7.77485,2.490857 c -4.4665,6.21661 -10.47622,11.815935 -8.309,20.686035 l -1.48913,-3.53848 c -2.23882,-6.54614 -3.96497,-13.092276 2.02328,-19.638412 z"
       id="stalk"/>

    <path
       style="opacity:1;
              fill:#6cabef;
              fill-opacity:1;
              fill-rule:nonzero;
              stroke:none"

       d="m 110.83281,78.217151 c -10.980839,0.37824 -23.702546,5.514588 -23.702728,23.227299 -5.6e-5,17.71292 11.96577,40.53885 26.726538,40.53913 3.67368,-0.0133 7.30565,-0.93527 10.66911,-2.70836 3.37686,1.78011 7.0242,2.70224 10.71253,2.70836 14.76096,7e-5 26.7271,-22.82597 26.72704,-40.53913 -1.8e-4,-17.712954 -11.96625,-23.605341 -26.72704,-23.605275 -3.67352,0.01336 -8.83066,1.903068 -13.31444,1.914612 -3.73231,0.0096 -7.40252,-1.530604 -11.09101,-1.536636 z"
       id="body"/>
      
  </g>
</svg>
