
<svg viewBox="-115 45 110 120" xmlns="http://www.w3.org/2000/svg">

<g transform="matrix(.1 0 0 .1 0 0) translate(180, 120) rotate(10)" fill="#6cabef">
<path d="m-262 1286c-115 92-249 185-389 186-148-11-249-113-251-248 0-26 3-58 8-96 157-18 279-43 366-75 165-68 370-182 373-369-9-130-146-168-241-168-117 0-226 35-332 101-210 147-371 389-374 634 15 213 151 339 341 342 166 0 340-91 524-273z m-177-712c69-1 117 48 118 109-16 160-163 265-285 321-72 32-165 54-279 67 41-164 106-288 194-371s170-125 252-126z"/>
</g>

</svg>
