<?xml version="1.0" encoding="utf-8"?><svg version="1.1" id="Layer_1" xmlns="http://www.w3.org/2000/svg" xmlns:xlink="http://www.w3.org/1999/xlink" x="0px" y="0px" viewBox="50 25 80 80" xml:space="preserve">
<g fill="#6cabef" transform="translate(-20, 37) rotate(-20)">
<path d="M69.27,50.33c4.04-5.38,6.46-7.17,7.71-7.17c1.29,0,2.32,1.27,4.53,8.41l3.78,12.19 c-7.31,11.18-12.66,17.41-15.91,17.41c-1.08,0-2.17-0.34-2.94-1.1c-0.76-0.76-1.6-1.39-2.42-1.39c-2.68,0-6,3.25-6.06,7.28 c-0.06,4.11,2.82,7.05,6.6,7.05c6.49,0,11.98-6.37,22.58-23.26l3.1,10.45c2.66,8.98,5.78,12.81,9.68,12.81 c4.82,0,11.3-4.11,18.37-15.22l-2.96-3.38c-4.25,5.12-7.07,7.52-8.74,7.52c-1.86,0-3.49-2.84-5.64-9.82l-4.53-14.73 c2.68-3.95,5.32-7.27,7.64-9.92c2.76-3.15,4.89-4.49,6.34-4.49c1.22,0,2.28,0.52,2.94,1.25c0.87,0.96,1.39,1.41,2.42,1.41 c2.33,0,5.93-2.96,6.06-6.88c0.12-3.64-2.14-6.74-6.06-6.74c-5.92,0-11.14,5.1-21.19,20.04l-2.07-6.41 c-2.9-9-4.82-13.63-8.86-13.63c-4.7,0-11.16,5.78-17.48,14.94L69.27,50.33L69.27,50.33z"/>
</g>
</svg>

